<?xml version="1.0" encoding="UTF-8"?>
<svg id="Camada_2" data-name="Camada 2" xmlns="http://www.w3.org/2000/svg" viewBox="0 0 11.75 11.75">
  <defs>
    <style>
      .cls-1, .cls-2, .cls-3 {
        fill: none;
      }

      .cls-2 {
        stroke-width: .4px;
      }

      .cls-2, .cls-4, .cls-3, .cls-5 {
        stroke: #010101;
        stroke-linecap: round;
        stroke-linejoin: round;
      }

      .cls-4 {
        fill: #010101;
      }

      .cls-4, .cls-5 {
        stroke-width: .5px;
      }

      .cls-3 {
        stroke-width: .3px;
      }

      .cls-5 {
        fill: #fff;
      }
    </style>
  </defs>
  <g id="Camada_1-2" data-name="Camada 1">
    <rect class="cls-1" width="11.75" height="11.75"/>
    <g>
      <path class="cls-4" d="M8.92,8.55c0,.13-.01.24-.04.33-.02.08-.04.14-.07.2-.11.22-.29.4-.5.51-.25.12-.57.12-1.21.12h-2.45c-.65,0-.97,0-1.22-.12-.21-.11-.39-.29-.5-.51-.07-.14-.1-.3-.11-.53h6.1Z"/>
      <path class="cls-5" d="M8.94,3.89v3.98c0,.28,0,.5-.02.68H2.82c-.01-.18-.01-.4-.01-.68v-3.98c0-.64,0-.97.12-1.21.11-.22.29-.39.5-.5.25-.13.57-.13,1.22-.13h2.45c.64,0,.96,0,1.21.13.21.11.39.28.5.5.13.24.13.57.13,1.21Z"/>
      <g>
        <line class="cls-3" x1="4.79" y1="2.05" x2="4.79" y2="9.71"/>
        <line class="cls-3" x1="6.96" y1="2.05" x2="6.96" y2="9.71"/>
      </g>
      <line class="cls-3" x1="8.94" y1="4.21" x2="2.81" y2="4.21"/>
      <line class="cls-3" x1="8.94" y1="6.38" x2="2.81" y2="6.38"/>
      <line class="cls-2" x1="2.82" y1="8.55" x2="2.81" y2="8.55"/>
      <line class="cls-2" x1="8.94" y1="8.55" x2="8.92" y2="8.55"/>
    </g>
  </g>
</svg>