<svg width="29" height="28" viewBox="0 0 29 28" fill="none" xmlns="http://www.w3.org/2000/svg">
<path d="M16.8334 2.64835V7.46732C16.8334 8.12071 16.8334 8.44741 16.9605 8.69697C17.0724 8.9165 17.2508 9.09497 17.4704 9.20683C17.7199 9.33398 18.0466 9.33398 18.7 9.33398H23.519M23.8334 11.6536V20.0673C23.8334 22.0275 23.8334 23.0076 23.4519 23.7563C23.1163 24.4149 22.5809 24.9503 21.9223 25.2858C21.1736 25.6673 20.1935 25.6673 18.2334 25.6673H10.7667C8.8065 25.6673 7.82641 25.6673 7.07772 25.2858C6.41915 24.9503 5.88372 24.4149 5.54816 23.7563C5.16669 23.0076 5.16669 22.0275 5.16669 20.0673V7.93398C5.16669 5.9738 5.16669 4.99371 5.54816 4.24502C5.88372 3.58645 6.41915 3.05102 7.07772 2.71546C7.82641 2.33398 8.8065 2.33398 10.7667 2.33398H14.5138C15.3698 2.33398 15.7979 2.33398 16.2007 2.43069C16.5578 2.51643 16.8992 2.65784 17.2124 2.84974C17.5656 3.06619 17.8682 3.36886 18.4736 3.97419L22.1932 7.69378C22.7985 8.29911 23.1011 8.60178 23.3176 8.95499C23.5095 9.26814 23.6509 9.60955 23.7366 9.96667C23.8334 10.3695 23.8334 10.7975 23.8334 11.6536Z" stroke="black" stroke-width="2" stroke-linecap="round" stroke-linejoin="round"/>
</svg>
