<?xml version="1.0" encoding="UTF-8"?>
<svg id="Camada_2" data-name="Camada 2" xmlns="http://www.w3.org/2000/svg" viewBox="0 0 11.75 11.75">
  <defs>
    <style>
      .cls-1, .cls-2, .cls-3 {
        fill: none;
      }

      .cls-2 {
        stroke-width: .3px;
      }

      .cls-2, .cls-3, .cls-4 {
        stroke: #010101;
        stroke-linecap: round;
      }

      .cls-2, .cls-4 {
        stroke-linejoin: round;
      }

      .cls-3 {
        stroke-width: .25px;
      }

      .cls-5 {
        fill: #010101;
      }

      .cls-4 {
        fill: #fff;
        stroke-width: .5px;
      }
    </style>
  </defs>
  <g id="Camada_1-2" data-name="Camada 1">
    <rect class="cls-1" width="11.75" height="11.75"/>
    <g>
      <path class="cls-4" d="M5.88,2.09h0c.93,0,1.69.76,1.69,1.69v3.85h-3.37v-3.85c0-.93.76-1.69,1.69-1.69Z" transform="translate(11.75 9.71) rotate(-180)"/>
      <polygon class="cls-3" points="6.22 8.26 5.54 8.8 5.54 7.58 6.22 7.58 6.22 8.26"/>
      <g>
        <path class="cls-5" d="M7.65,7.59v.5s-.05,0-.08,0c-.04,0-.09,0-.13,0-.05,0-.09.02-.12.06-.02.02-.03.05-.03.08,0,.07.05.13.08.19l.12.18.12.18s.04.06.06.09c.02.03.04.04.07.05.04.02.08.02.12,0,.03-.01.05-.03.07-.05l.09-.14.17-.26c.03-.05.07-.1.1-.16.02-.04.03-.09.02-.13-.03-.08-.11-.11-.19-.1-.06,0-.11,0-.17,0v-.5s-.02-.08-.05-.11-.07-.04-.11-.04c-.08,0-.15.07-.15.15Z"/>
        <path class="cls-5" d="M3.8,7.59v.5s-.05,0-.08,0c-.04,0-.09,0-.13,0-.05,0-.09.02-.12.06-.02.02-.03.05-.03.08,0,.07.05.13.08.19l.12.18.12.18s.04.06.06.09c.02.03.04.04.07.05.04.02.08.02.12,0,.03-.01.05-.03.07-.05l.09-.14.17-.26c.03-.05.07-.1.1-.16.02-.04.03-.09.02-.13-.03-.08-.11-.11-.19-.1-.06,0-.11,0-.17,0v-.5s-.02-.08-.05-.11-.07-.04-.11-.04c-.08,0-.15.07-.15.15Z"/>
      </g>
      <line class="cls-2" x1="3.11" y1="9.66" x2="8.65" y2="9.66"/>
    </g>
  </g>
</svg>