<?xml version="1.0" encoding="UTF-8"?>
<svg id="Camada_2" data-name="Camada 2" xmlns="http://www.w3.org/2000/svg" viewBox="0 0 11.75 11.75">
  <defs>
    <style>
      .cls-1, .cls-2, .cls-3 {
        fill: none;
      }

      .cls-2 {
        stroke-width: .3px;
      }

      .cls-2, .cls-3 {
        stroke: #010101;
        stroke-linecap: round;
        stroke-linejoin: round;
      }

      .cls-3 {
        stroke-width: .5px;
      }
    </style>
  </defs>
  <g id="Camada_1-2" data-name="Camada 1">
    <rect class="cls-1" width="11.75" height="11.75"/>
    <g>
      <path class="cls-3" d="M8.82,2.67c-.11-.22-.29-.39-.5-.5-.25-.13-.57-.13-1.21-.13h-2.45c-.64,0-.97,0-1.21.13-.22.11-.39.29-.5.5-.13.25-.13.57-.13,1.21v3.98c0,.64,0,.97.13,1.21.11.22.29.39.5.5.25.13.57.13,1.21.13h2.45c.64,0,.97,0,1.21-.13.22-.11.39-.29.5-.5.03-.06.05-.13.07-.2.05-.22.05-.53.05-1.01v-3.98c0-.64,0-.97-.13-1.21Z"/>
      <g>
        <g>
          <line class="cls-2" x1="7.27" y1="7.26" x2="7.9" y2="7.89"/>
          <line class="cls-2" x1="7.27" y1="8.54" x2="7.9" y2="7.91"/>
        </g>
        <g>
          <line class="cls-2" x1="7.27" y1="7.26" x2="7.9" y2="7.89"/>
          <line class="cls-2" x1="7.27" y1="8.54" x2="7.9" y2="7.91"/>
        </g>
        <g>
          <line class="cls-2" x1="4.48" y1="7.27" x2="3.85" y2="7.9"/>
          <line class="cls-2" x1="4.48" y1="8.55" x2="3.85" y2="7.92"/>
        </g>
        <line class="cls-2" x1="3.85" y1="7.9" x2="7.9" y2="7.9"/>
      </g>
    </g>
  </g>
</svg>