<?xml version="1.0" encoding="UTF-8"?>
<svg id="Camada_2" data-name="Camada 2" xmlns="http://www.w3.org/2000/svg" viewBox="0 0 11.75 11.75">
  <defs>
    <style>
      .cls-1 {
        fill: #fff;
      }

      .cls-2, .cls-3, .cls-4 {
        fill: none;
      }

      .cls-3 {
        stroke-width: .3px;
      }

      .cls-3, .cls-4 {
        stroke: #010101;
        stroke-linecap: round;
        stroke-linejoin: round;
      }

      .cls-4 {
        stroke-width: .5px;
      }

      .cls-5 {
        fill: #010101;
      }
    </style>
  </defs>
  <g id="Camada_1-2" data-name="Camada 1">
    <rect class="cls-2" width="11.75" height="11.75"/>
    <g>
      <path class="cls-4" d="M9.08,8.05c.22-.11.39-.29.5-.5.13-.25.13-.57.13-1.21v-1.22h0v-1.23c0-.64,0-.97-.13-1.21-.11-.22-.29-.39-.5-.5-.25-.13-.57-.13-1.21-.13h-3.98c-.64,0-.97,0-1.21.13-.22.11-.39.29-.5.5-.13.25-.13.57-.13,1.21v2.45c0,.64,0,.97.13,1.21.11.22.29.39.5.5.06.03.13.05.2.07.22.05.53.05,1.01.05h3.98c.64,0,.97,0,1.21-.13Z"/>
      <path class="cls-3" d="M3.66,6.24c0-.56,0-1.7,0-2.26,0-.18.14-.32.32-.32.82,0,2.97,0,3.79,0,.18,0,.32.14.32.32,0,.56,0,1.7,0,2.26,0,.18-.14.32-.32.32-.82,0-2.97,0-3.79,0-.18,0-.32-.14-.32-.32Z"/>
      <line class="cls-4" x1="5.88" y1="8.17" x2="5.88" y2="9.71"/>
      <line class="cls-4" x1="4.86" y1="9.71" x2="6.89" y2="9.71"/>
      <g>
        <path class="cls-1" d="M8.07,6.92c-.13,0-.25-.05-.33-.14l-.38-.38-.02.02c-.12.13-.26.19-.4.19-.07,0-.14-.02-.21-.05-.12-.06-.21-.18-.25-.32-.02-.07-.03-.14-.04-.21l-.17-.82c-.02-.09,0-.18.03-.28.06-.13.15-.22.27-.26.06-.03.12-.04.19-.04h.08s.85.18.85.18c.15.03.32.06.44.2.06.07.09.16.1.25.01.13-.03.26-.12.37-.03.03-.05.06-.08.09l.38.38c.18.18.18.48,0,.67-.09.09-.21.14-.33.14Z"/>
        <path class="cls-5" d="M8.23,6.28l-.55-.55.09-.09s.1-.1.15-.15c.05-.06.08-.12.07-.19,0-.05-.02-.09-.05-.12-.07-.09-.2-.1-.3-.12l-.34-.07-.34-.07c-.06-.01-.11-.02-.17-.03-.05,0-.09,0-.14.02-.06.03-.11.07-.14.14-.02.04-.03.09-.02.14l.05.25.1.47c.02.1.03.19.06.29.02.07.06.13.13.16.12.06.24,0,.33-.09.06-.06.13-.13.19-.19l.55.55s.11.07.17.07.12-.02.17-.07c.09-.09.09-.24,0-.33Z"/>
      </g>
    </g>
  </g>
</svg>