<?xml version="1.0" encoding="UTF-8"?>
<svg id="Camada_2" data-name="Camada 2" xmlns="http://www.w3.org/2000/svg" viewBox="0 0 11.75 11.75">
  <defs>
    <style>
      .cls-1, .cls-2, .cls-3 {
        fill: none;
      }

      .cls-4 {
        fill: #fff;
        stroke-width: .4px;
      }

      .cls-4, .cls-5, .cls-2, .cls-3 {
        stroke: #010101;
        stroke-linecap: round;
        stroke-linejoin: round;
      }

      .cls-5 {
        fill: #010101;
        stroke-width: .3px;
      }

      .cls-2 {
        stroke-width: .25px;
      }

      .cls-3 {
        stroke-width: .3px;
      }
    </style>
  </defs>
  <g id="Camada_1-2" data-name="Camada 1">
    <rect class="cls-1" width="11.75" height="11.75"/>
    <g>
      <g>
        <path class="cls-4" d="M1.13,7.08c0-.07,0-2.09,0-3.13,0-.33.26-.6.6-.6,1.71,0,6.6,0,8.31,0,.33,0,.6.26.6.6,0,1.04,0,3.06,0,3.13-.15,0-9.35,0-9.5,0Z"/>
        <g>
          <line class="cls-2" x1="9.62" y1="3.36" x2="9.62" y2="7.08"/>
          <line class="cls-2" x1="2.13" y1="5.88" x2="9.62" y2="5.88"/>
          <line class="cls-2" x1="2.13" y1="7.08" x2="2.13" y2="3.36"/>
        </g>
        <rect class="cls-5" x="7.31" y="4.21" width="1.41" height=".91"/>
      </g>
      <g>
        <line class="cls-3" x1="2.18" y1="8.4" x2="9.58" y2="8.4"/>
        <line class="cls-3" x1="2.18" y1="8.4" x2="2.18" y2="7.91"/>
        <line class="cls-3" x1="9.58" y1="8.4" x2="9.58" y2="7.91"/>
      </g>
    </g>
  </g>
</svg>