<?xml version="1.0" encoding="UTF-8"?>
<svg id="Camada_2" data-name="Camada 2" xmlns="http://www.w3.org/2000/svg" viewBox="0 0 11.75 11.75">
  <defs>
    <style>
      .cls-1 {
        stroke-width: .32px;
      }

      .cls-1, .cls-2, .cls-3, .cls-4 {
        stroke: #010101;
        stroke-linecap: round;
        stroke-linejoin: round;
      }

      .cls-1, .cls-5, .cls-4 {
        fill: none;
      }

      .cls-2 {
        fill: #010101;
        stroke-width: .26px;
      }

      .cls-3 {
        fill: #fff;
        stroke-width: .4px;
      }

      .cls-4 {
        stroke-width: .25px;
      }
    </style>
  </defs>
  <g id="Camada_1-2" data-name="Camada 1">
    <rect class="cls-5" width="11.75" height="11.75"/>
    <g>
      <g>
        <path class="cls-3" d="M3.01,6.72s0-1.47,0-2.2c0-.24.18-.42.42-.42,1.2,0,4.65,0,5.85,0,.24,0,.42.19.42.42,0,.73,0,2.16,0,2.2-.1,0-6.59,0-6.69,0Z"/>
        <g>
          <line class="cls-4" x1="9" y1="4.1" x2="9" y2="6.72"/>
          <line class="cls-4" x1="3.72" y1="5.88" x2="9" y2="5.88"/>
          <line class="cls-4" x1="3.72" y1="6.72" x2="3.72" y2="4.1"/>
        </g>
        <rect class="cls-2" x="7.37" y="4.7" width="1" height=".64"/>
      </g>
      <g>
        <line class="cls-1" x1="3.01" y1="7.71" x2="9.71" y2="7.71"/>
        <line class="cls-1" x1="3.01" y1="7.71" x2="3.01" y2="7.31"/>
        <line class="cls-1" x1="9.71" y1="7.71" x2="9.71" y2="7.31"/>
      </g>
      <g>
        <line class="cls-1" x1="2.05" y1="4.05" x2="2.05" y2="6.78"/>
        <line class="cls-1" x1="2.05" y1="4.05" x2="2.45" y2="4.05"/>
        <line class="cls-1" x1="2.05" y1="6.78" x2="2.45" y2="6.78"/>
      </g>
    </g>
  </g>
</svg>