<?xml version="1.0" encoding="UTF-8"?>
<svg id="Camada_2" data-name="Camada 2" xmlns="http://www.w3.org/2000/svg" viewBox="0 0 11.75 11.75">
  <defs>
    <style>
      .cls-1, .cls-2, .cls-3, .cls-4 {
        fill: none;
      }

      .cls-2 {
        stroke-width: .4px;
      }

      .cls-2, .cls-5, .cls-3, .cls-4 {
        stroke: #010101;
        stroke-linecap: round;
        stroke-linejoin: round;
      }

      .cls-5 {
        fill: #010101;
        stroke-width: .3px;
      }

      .cls-3 {
        stroke-width: .25px;
      }

      .cls-4 {
        stroke-width: .3px;
      }
    </style>
  </defs>
  <g id="Camada_1-2" data-name="Camada 1">
    <rect class="cls-1" width="11.75" height="11.75"/>
    <g>
      <g>
        <path class="cls-2" d="M2.13,6.83c0-.05,0-1.65,0-2.47,0-.26.21-.47.47-.47,1.35,0,5.21,0,6.56,0,.26,0,.47.21.47.47,0,.82,0,2.42,0,2.47-.12,0-7.38,0-7.5,0Z"/>
        <g>
          <line class="cls-3" x1="8.84" y1="3.89" x2="8.84" y2="6.83"/>
          <line class="cls-3" x1="2.92" y1="5.88" x2="8.84" y2="5.88"/>
          <line class="cls-3" x1="2.92" y1="6.83" x2="2.92" y2="3.89"/>
        </g>
        <rect class="cls-5" x="7.01" y="4.56" width="1.12" height=".72"/>
      </g>
      <g>
        <line class="cls-4" x1="2.95" y1="7.87" x2="8.8" y2="7.87"/>
        <line class="cls-4" x1="2.95" y1="7.87" x2="2.95" y2="7.49"/>
        <line class="cls-4" x1="8.8" y1="7.87" x2="8.8" y2="7.49"/>
      </g>
    </g>
  </g>
</svg>