<?xml version="1.0" encoding="UTF-8"?>
<svg id="Camada_2" data-name="Camada 2" xmlns="http://www.w3.org/2000/svg" viewBox="0 0 11.75 11.75">
  <defs>
    <style>
      .cls-1 {
        stroke-width: .32px;
      }

      .cls-1, .cls-2, .cls-3, .cls-4 {
        stroke: #010101;
        stroke-linecap: round;
        stroke-linejoin: round;
      }

      .cls-1, .cls-5, .cls-4 {
        fill: none;
      }

      .cls-2 {
        fill: #010101;
        stroke-width: .26px;
      }

      .cls-3 {
        fill: #fff;
        stroke-width: .4px;
      }

      .cls-4 {
        stroke-width: .25px;
      }
    </style>
  </defs>
  <g id="Camada_1-2" data-name="Camada 1">
    <rect class="cls-5" width="11.75" height="11.75"/>
    <g>
      <g>
        <path class="cls-3" d="M2.29,6.94c0-.06,0-1.85,0-2.76,0-.29.23-.53.53-.53,1.51,0,5.83,0,7.34,0,.29,0,.53.23.53.53,0,.92,0,2.7,0,2.76-.13,0-8.26,0-8.39,0Z"/>
        <g>
          <line class="cls-4" x1="9.79" y1="3.65" x2="9.79" y2="6.94"/>
          <line class="cls-4" x1="3.17" y1="5.88" x2="9.79" y2="5.88"/>
          <line class="cls-4" x1="3.17" y1="6.94" x2="3.17" y2="3.65"/>
        </g>
        <rect class="cls-2" x="7.75" y="4.4" width="1.25" height=".8"/>
      </g>
      <g>
        <line class="cls-1" x1="2.29" y1="8.17" x2="10.68" y2="8.17"/>
        <line class="cls-1" x1="2.29" y1="8.17" x2="2.29" y2="7.67"/>
        <line class="cls-1" x1="10.68" y1="8.17" x2="10.68" y2="7.67"/>
      </g>
      <g>
        <line class="cls-1" x1="1.07" y1="3.58" x2="1.07" y2="7"/>
        <line class="cls-1" x1="1.07" y1="3.58" x2="1.58" y2="3.58"/>
        <line class="cls-1" x1="1.07" y1="7" x2="1.58" y2="7"/>
      </g>
    </g>
  </g>
</svg>