<?xml version="1.0" encoding="UTF-8"?>
<svg id="Camada_2" data-name="Camada 2" xmlns="http://www.w3.org/2000/svg" viewBox="0 0 11.75 11.75">
  <defs>
    <style>
      .cls-1 {
        stroke-width: .25px;
      }

      .cls-1, .cls-2, .cls-3 {
        stroke: #010101;
        stroke-linecap: round;
      }

      .cls-1, .cls-3 {
        fill: #fff;
      }

      .cls-4, .cls-2 {
        fill: none;
      }

      .cls-2 {
        stroke-width: .3px;
      }

      .cls-2, .cls-3 {
        stroke-linejoin: round;
      }

      .cls-3 {
        stroke-width: .5px;
      }
    </style>
  </defs>
  <g id="Camada_1-2" data-name="Camada 1">
    <rect class="cls-4" width="11.75" height="11.75"/>
    <g>
      <line class="cls-2" x1="3.11" y1="9.66" x2="8.65" y2="9.66"/>
      <g>
        <polygon class="cls-1" points="7.3 8.26 6.62 8.8 6.62 7.58 7.3 7.58 7.3 8.26"/>
        <path class="cls-3" d="M6.96,2.09h0c.93,0,1.69.76,1.69,1.69v3.85h-3.37v-3.85c0-.93.76-1.69,1.69-1.69Z" transform="translate(13.92 9.71) rotate(180)"/>
      </g>
      <line class="cls-2" x1="4.42" y1="2.96" x2="3.27" y2="2.96"/>
      <line class="cls-2" x1="4.42" y1="4.05" x2="3.27" y2="4.05"/>
      <line class="cls-2" x1="4.42" y1="5.14" x2="3.27" y2="5.14"/>
      <line class="cls-2" x1="4.42" y1="6.23" x2="3.27" y2="6.23"/>
      <line class="cls-2" x1="4.98" y1="7.32" x2="3.27" y2="7.32"/>
      <line class="cls-2" x1="5.97" y1="8.41" x2="3.27" y2="8.41"/>
    </g>
  </g>
</svg>