<svg width="16" height="16" viewBox="0 0 16 16" fill="none" xmlns="http://www.w3.org/2000/svg">
<path d="M9.33317 3.33333C9.33317 2.59695 8.73622 2 7.99984 2C7.26346 2 6.6665 2.59695 6.6665 3.33333M9.33317 3.33333C9.33317 4.06971 8.73622 4.66667 7.99984 4.66667C7.26346 4.66667 6.6665 4.06971 6.6665 3.33333M9.33317 3.33333H13.3332M6.6665 3.33333L2.6665 3.33333M10.6665 8C10.6665 8.73638 11.2635 9.33333 11.9998 9.33333C12.7362 9.33333 13.3332 8.73638 13.3332 8C13.3332 7.26362 12.7362 6.66667 11.9998 6.66667C11.2635 6.66667 10.6665 7.26362 10.6665 8ZM10.6665 8H2.6665M5.33317 12.6667C5.33317 11.9303 4.73622 11.3333 3.99984 11.3333C3.26346 11.3333 2.6665 11.9303 2.6665 12.6667C2.6665 13.403 3.26346 14 3.99984 14C4.73622 14 5.33317 13.403 5.33317 12.6667ZM5.33317 12.6667H13.3332" stroke="black" stroke-width="1.5" stroke-linecap="round"/>
</svg>
