<svg width="30" height="30" viewBox="0 0 30 30" fill="none" xmlns="http://www.w3.org/2000/svg">
<path d="M11.8745 14.375L14.3745 16.875L19.9995 11.25M15.6245 25C21.4926 25 26.2495 20.243 26.2495 14.375C26.2495 8.50697 21.4926 3.75 15.6245 3.75C9.75651 3.75 4.99953 8.50697 4.99953 14.375C4.99953 15.5625 5.19434 16.7045 5.55374 17.7708C5.68899 18.172 5.75662 18.3727 5.76882 18.5268C5.78086 18.679 5.77176 18.7857 5.7341 18.9337C5.69597 19.0835 5.61178 19.2394 5.4434 19.551L3.39883 23.3354C3.10719 23.8753 2.96137 24.1452 2.994 24.3535C3.02243 24.5349 3.12922 24.6947 3.286 24.7903C3.466 24.9001 3.77115 24.8686 4.38146 24.8055L10.7827 24.1438C10.9766 24.1237 11.0735 24.1137 11.1619 24.1171C11.2487 24.1204 11.3101 24.1286 11.3948 24.1481C11.481 24.168 11.5893 24.2097 11.806 24.2932C12.991 24.7497 14.2786 25 15.6245 25Z" stroke="black" stroke-width="2" stroke-linecap="round" stroke-linejoin="round"/>
</svg>
