<svg width="28" height="28" viewBox="0 0 28 28" fill="none" xmlns="http://www.w3.org/2000/svg">
<path d="M5.83331 14.0007C5.83331 9.49033 9.48965 5.83398 14 5.83398M19.2499 8.75065L13.9999 14.0007M25.6666 14.0007C25.6666 20.444 20.4433 25.6673 14 25.6673C7.55666 25.6673 2.33331 20.444 2.33331 14.0007C2.33331 7.55733 7.55666 2.33398 14 2.33398C20.4433 2.33398 25.6666 7.55733 25.6666 14.0007ZM15.1666 14.0007C15.1666 14.645 14.6443 15.1673 14 15.1673C13.3556 15.1673 12.8333 14.645 12.8333 14.0007C12.8333 13.3563 13.3556 12.834 14 12.834C14.6443 12.834 15.1666 13.3563 15.1666 14.0007Z" stroke="black" stroke-width="2" stroke-linecap="round" stroke-linejoin="round"/>
</svg>
